<svg width="32" height="36" viewBox="0 0 32 36" fill="none" xmlns="http://www.w3.org/2000/svg">
<path d="M4.35575 7.25639L13.3918 1.74661C14.1926 1.25831 15.1124 1 16.0503 1C16.9946 1 17.9203 1.2618 18.7247 1.7563L27.666 7.25296C29.7377 8.5266 31 10.7843 31 13.2163V22.5476C31 24.9795 29.7377 27.2372 27.666 28.5109L18.7247 34.0075C17.9203 34.502 16.9946 34.7638 16.0503 34.7638C15.1124 34.7638 14.1926 34.5055 13.3918 34.0172L4.35575 28.5074C2.27161 27.2366 1 24.9719 1 22.5309V13.233C1 10.7919 2.27161 8.52721 4.35575 7.25639Z" fill="black" stroke="black"/>
<path d="M16.0653 23.192C15.2226 23.192 14.4386 23.0373 13.7133 22.728C12.9986 22.4187 12.3746 21.992 11.8413 21.448C11.3186 20.8933 10.9079 20.2427 10.6093 19.496C10.3106 18.7493 10.1613 17.928 10.1613 17.032C10.1613 16.1467 10.3053 15.3307 10.5933 14.584C10.8919 13.8267 11.3079 13.176 11.8413 12.632C12.3746 12.0773 12.9986 11.6507 13.7133 11.352C14.4279 11.0427 15.2119 10.888 16.0653 10.888C16.9079 10.888 17.6599 11.032 18.3212 11.32C18.9933 11.608 19.5586 11.9867 20.0173 12.456C20.4759 12.9147 20.8066 13.416 21.0093 13.96L19.3133 14.76C19.0573 14.12 18.6466 13.6027 18.0813 13.208C17.5266 12.8027 16.8546 12.6 16.0653 12.6C15.2759 12.6 14.5773 12.7867 13.9693 13.16C13.3613 13.5333 12.8866 14.0507 12.5453 14.712C12.2146 15.3733 12.0493 16.1467 12.0493 17.032C12.0493 17.9173 12.2146 18.696 12.5453 19.368C12.8866 20.0293 13.3613 20.5467 13.9693 20.92C14.5773 21.2827 15.2759 21.464 16.0653 21.464C16.8546 21.464 17.5266 21.2667 18.0813 20.872C18.6466 20.4773 19.0573 19.96 19.3133 19.32L21.0093 20.12C20.8066 20.6533 20.4759 21.1547 20.0173 21.624C19.5586 22.0933 18.9933 22.472 18.3212 22.76C17.6599 23.048 16.9079 23.192 16.0653 23.192Z" fill="white"/>
</svg>
