<svg width="11" height="7" viewBox="0 0 11 7" fill="none" xmlns="http://www.w3.org/2000/svg">
<path d="M0.7475 6.50043C0.5575 6.50043 0.3675 6.43043 0.2175 6.28043C-0.0725 5.99043 -0.0725 5.51043 0.2175 5.22043L3.4175 2.02043C3.5775 1.86043 3.7875 1.78043 4.0175 1.80043C4.2375 1.82043 4.4375 1.94043 4.5675 2.13043L5.6575 3.77043L9.2075 0.22043C9.4975 -0.0695703 9.9775 -0.0695703 10.2675 0.22043C10.5575 0.51043 10.5575 0.990429 10.2675 1.28043L6.0675 5.48043C5.9075 5.64043 5.6975 5.72043 5.4675 5.70043C5.2475 5.68043 5.0475 5.56043 4.9175 5.37043L3.8275 3.73043L1.2775 6.28043C1.1275 6.43043 0.9375 6.50043 0.7475 6.50043Z" fill="#292D32"/>
<path d="M9.74756 3.5C9.33756 3.5 8.99756 3.16 8.99756 2.75V1.5H7.74756C7.33756 1.5 6.99756 1.16 6.99756 0.75C6.99756 0.34 7.33756 0 7.74756 0H9.74756C10.1576 0 10.4976 0.34 10.4976 0.75V2.75C10.4976 3.16 10.1576 3.5 9.74756 3.5Z" fill="#292D32"/>
</svg>
