<svg width="11" height="7" viewBox="0 0 11 7" fill="none" xmlns="http://www.w3.org/2000/svg">
<path d="M9.7375 6.4975C9.5475 6.4975 9.3575 6.4275 9.2075 6.2775L5.6575 2.7275L4.5675 4.3675C4.4475 4.5575 4.2375 4.6775 4.0175 4.6975C3.7875 4.7175 3.5675 4.6375 3.4175 4.4775L0.2175 1.2775C-0.0725 0.987499 -0.0725 0.5075 0.2175 0.2175C0.5075 -0.0725 0.9875 -0.0725 1.2775 0.2175L3.8275 2.7675L4.9175 1.1275C5.0375 0.9475 5.2375 0.8275 5.4675 0.7975C5.6975 0.7775 5.9175 0.8575 6.0675 1.0175L10.2675 5.2175C10.5575 5.5075 10.5575 5.9875 10.2675 6.2775C10.1175 6.4275 9.9275 6.4975 9.7375 6.4975Z" fill="#292D32"/>
<path d="M9.73755 6.49707H7.73755C7.32755 6.49707 6.98755 6.15707 6.98755 5.74707C6.98755 5.33707 7.32755 4.99707 7.73755 4.99707H8.98755V3.74707C8.98755 3.33707 9.32755 2.99707 9.73755 2.99707C10.1475 2.99707 10.4875 3.33707 10.4875 3.74707V5.74707C10.4875 6.15707 10.1475 6.49707 9.73755 6.49707Z" fill="#292D32"/>
</svg>
